<svg width="181" height="24" viewBox="0 0 181 24" fill="none" xmlns="http://www.w3.org/2000/svg">
<g clip-path="url(#clip0_719_534)">
<path d="M33.5699 11.9999V11.9199C33.5699 5.62991 38.0699 0.659912 44.4299 0.659912C51.8699 0.659912 55.2899 6.10991 55.2899 12.4399C55.2899 12.9199 55.2899 13.4699 55.2499 13.9899H40.8399C41.4399 16.3399 43.1499 17.5299 45.4999 17.5299C47.2899 17.5299 48.7199 16.8499 50.2799 15.3399L54.4599 18.7999C52.3899 21.4299 49.4099 23.1799 45.1099 23.1799C38.3399 23.1799 33.5699 18.6799 33.5699 11.9999ZM48.2099 10.1299C47.9299 7.73991 46.5399 6.22991 44.4699 6.22991C42.3999 6.22991 41.1299 7.77991 40.7299 10.1299H48.2099Z" fill="white"/>
<path d="M58.08 6.90991H71.13V13.5599H58.08V6.90991Z" fill="white"/>
<path d="M72.5199 1.13989H80.4799L84.6199 13.7199L88.7599 1.13989H96.5999L87.9999 22.8299H81.1199L72.5199 1.13989Z" fill="white"/>
<path d="M96.86 11.9999V11.9199C96.86 5.62991 101.36 0.659912 107.72 0.659912C115.16 0.659912 118.58 6.10991 118.58 12.4399C118.58 12.9199 118.58 13.4699 118.54 13.9899H104.13C104.73 16.3399 106.44 17.5299 108.79 17.5299C110.58 17.5299 112.01 16.8499 113.57 15.3399L117.75 18.7999C115.68 21.4299 112.7 23.1799 108.4 23.1799C101.63 23.1799 96.86 18.6799 96.86 11.9999ZM111.5 10.1299C111.22 7.73991 109.83 6.22991 107.76 6.22991C105.69 6.22991 104.42 7.77991 104.02 10.1299H111.5Z" fill="white"/>
<path d="M121.81 1.13984H129.37V5.47984C130.6 2.52984 132.59 0.619844 136.18 0.779844V8.73984H135.54C131.6 8.73984 129.37 11.0098 129.37 15.9798V22.6698H121.81V1.13984Z" fill="white"/>
<path d="M137.2 19.9599L140.03 15.38C142.5 17.01 145.2 17.85 147.43 17.85C148.74 17.85 149.34 17.45 149.34 16.7V16.62C149.34 15.78 148.15 15.43 145.88 14.79C141.62 13.68 138.24 12.24 138.24 7.89995V7.81995C138.24 3.23995 141.9 0.699951 146.88 0.699951C150.02 0.699951 153.29 1.61995 155.76 3.20995L153.17 7.98995C150.94 6.75995 148.51 5.99995 146.8 5.99995C145.65 5.99995 145.05 6.43995 145.05 7.02995V7.10995C145.05 7.94995 146.28 8.33995 148.55 9.01995C152.81 10.21 156.19 11.69 156.19 15.86V15.94C156.19 20.68 152.65 23.1399 147.39 23.1399C143.77 23.1399 140.19 22.1099 137.2 19.9599Z" fill="white"/>
<path d="M158.41 11.9999V11.9199C158.41 5.62991 162.91 0.659912 169.27 0.659912C176.71 0.659912 180.13 6.10991 180.13 12.4399C180.13 12.9199 180.13 13.4699 180.09 13.9899H165.68C166.28 16.3399 167.99 17.5299 170.34 17.5299C172.13 17.5299 173.56 16.8499 175.12 15.3399L179.3 18.7999C177.23 21.4299 174.25 23.1799 169.95 23.1799C163.18 23.1799 158.41 18.6799 158.41 11.9999ZM173.05 10.1299C172.77 7.73991 171.38 6.22991 169.31 6.22991C167.24 6.22991 165.97 7.77991 165.57 10.1299H173.05Z" fill="white"/>
<path d="M15.32 0C13.66 2.27 11.93 5.4 11.78 7.44C11.87 6.74 12.36 6.09 13.08 5.77C14.03 5.35 15.25 5.8 15.76 6.7L19.09 12.54C19.82 13.82 21.65 13.82 22.39 12.55L26.46 5.57C27.91 3.11 26.14 0.01 23.29 0H15.32Z" fill="#F94F46"/>
<path d="M15.29 0.05C13.74 2.34 11.9 5.46 11.78 7.52C11.75 7.78 11.76 8.04 11.83 8.3C11.87 8.48 11.93 8.65 12.02 8.8L15.74 15.32L17.49 18.38C17.83 18.97 17.82 19.69 17.47 20.27L16.29 22.25C14.69 24.79 11.25 24.35 9.97997 22.13L7.84997 18.45V18.43L0.479972 5.51C-0.790027 3.28 0.529973 0.24 3.49997 0H15.32L15.28 0.05H15.29Z" fill="#F94F46"/>
</g>
<defs>
<clipPath id="clip0_719_534">
<rect width="180.14" height="24" fill="white"/>
</clipPath>
</defs>
</svg>
